<svg version="1.1" id="Layer_1" xmlns="http://www.w3.org/2000/svg" xmlns:xlink="http://www.w3.org/1999/xlink" x="0px" y="0px"
	 width="100%" viewBox="0 0 1012 1463" xml:space="preserve">
<path fill="#fff" opacity="1.000000" stroke="none" 
	d="
M103.014893,1124.864380 
	C105.177986,1124.909546 107.341080,1124.994263 109.504181,1124.994385 
	C392.690277,1125.000244 675.876343,1124.992920 959.062439,1125.026978 
	C969.980530,1125.028320 980.405823,1127.473267 989.751587,1133.281006 
	C1000.156677,1139.747192 1006.830627,1149.254639 1010.931091,1160.683105 
	C1011.296753,1161.702393 1011.890991,1162.639771 1012.689514,1163.307617 
	C1013.000000,1164.388916 1013.000000,1165.777832 1012.610596,1167.780884 
	C1012.133484,1168.881470 1011.969055,1169.367798 1011.968933,1169.854248 
	C1011.953247,1252.263794 1011.945740,1334.673462 1011.988647,1417.083008 
	C1011.989197,1418.055420 1012.648254,1419.027710 1013.000000,1420.000000 
	C1013.000000,1421.388916 1013.000000,1422.777832 1012.690125,1424.275635 
	C1011.928162,1425.027832 1011.275818,1425.608765 1011.052979,1426.323608 
	C1005.224976,1445.029175 992.836121,1456.897827 973.990479,1462.144775 
	C973.524292,1462.274536 973.324219,1463.360107 973.000000,1464.000000 
	C970.299988,1464.000000 967.599976,1464.000000 964.246216,1463.627930 
	C962.269531,1463.170532 960.946716,1463.010620 959.623840,1463.010498 
	C693.258240,1462.999634 426.892639,1462.998413 160.527039,1463.041260 
	C159.017975,1463.041504 157.509003,1463.666626 156.000000,1464.000000 
	C153.629440,1464.000000 151.258896,1464.000000 148.743225,1463.670898 
	C147.938873,1462.904541 147.333679,1462.230957 146.612137,1462.065918 
	C138.130157,1460.125000 130.903122,1455.930298 124.557388,1450.066162 
	C115.744911,1441.922363 110.210052,1431.997803 108.457321,1419.843994 
	C108.869720,1418.880615 109.075760,1418.229858 109.075478,1417.578979 
	C109.059418,1380.297852 109.036415,1343.016846 108.959618,1305.735840 
	C108.956345,1304.147339 108.439415,1302.559814 108.093117,1300.558472 
	C108.349251,1298.057495 108.602524,1295.955688 109.011139,1293.884766 
	C110.835884,1284.636108 114.683205,1275.994995 122.248222,1270.549683 
	C140.676834,1257.284180 160.490173,1253.945557 182.164597,1263.416016 
	C199.409515,1270.950928 208.126846,1283.541260 209.074127,1302.444824 
	C209.008240,1321.057007 208.981033,1339.203125 209.044205,1357.348877 
	C209.049423,1358.846313 209.667404,1360.341797 210.464737,1361.907104 
	C442.956238,1361.983887 674.983704,1361.992065 907.011108,1361.993286 
	C908.007080,1361.993286 909.002991,1361.892456 910.380859,1361.657471 
	C910.840088,1360.817993 910.984985,1360.159668 910.985168,1359.501465 
	C910.997375,1316.218018 911.005859,1272.934448 910.957703,1229.651001 
	C910.956421,1228.487427 910.332458,1227.324585 909.534851,1226.092529 
	C908.070923,1226.015869 907.071106,1226.000977 906.071289,1226.000977 
	C618.936584,1226.003296 331.801880,1226.003906 44.667171,1226.025391 
	C36.937160,1226.025879 29.839775,1223.923462 23.350683,1219.868286 
	C12.383343,1213.014648 6.724504,1202.418091 2.965698,1190.505737 
	C2.666659,1189.558105 1.671589,1188.830078 1.000000,1188.000000 
	C1.000000,1185.299927 1.000000,1182.599976 1.310240,1179.182373 
	C1.746956,1176.984497 1.984199,1175.504150 1.984262,1174.023926 
	C2.000355,800.734802 2.001240,427.445618 1.958670,54.156471 
	C1.958474,52.437611 1.333301,50.718822 1.000000,49.000000 
	C1.000000,45.969406 1.000000,42.938812 1.309237,39.761894 
	C2.068156,38.971684 2.704712,38.389381 2.940195,37.674892 
	C8.854022,19.731627 20.379654,7.647684 39.006065,2.859251 
	C39.466286,2.740938 39.674335,1.641725 40.000000,1.000000 
	C128.687561,1.000000 217.375122,1.000000 306.531342,1.000000 
	C307.672485,1.665915 308.238129,2.723723 309.033081,2.940529 
	C329.870209,8.623183 341.855621,22.627434 346.905518,43.132668 
	C347.292694,44.704803 346.997528,46.444984 347.012878,49.001617 
	C347.004181,361.114960 347.001953,672.333740 347.004547,983.552551 
	C347.004578,985.715820 347.071472,987.879028 347.107117,990.042297 
	C347.602844,1016.205200 327.520447,1030.626221 307.020660,1034.909302 
	C288.447327,1038.789795 271.951080,1033.267212 257.898590,1021.151306 
	C251.284454,1015.448608 247.738144,1007.328735 245.992294,998.638855 
	C245.738937,997.377747 245.368134,996.140198 245.400055,994.194641 
	C245.832108,990.346680 245.988937,987.195923 245.989059,984.045105 
	C246.000244,692.600586 246.001816,401.156067 245.955841,109.711563 
	C245.955490,107.503334 245.295425,105.295212 244.943420,103.087036 
	C197.943771,103.064621 150.944122,103.042206 103.136826,103.299545 
	C102.219498,105.731171 102.013954,107.883041 102.013756,110.034935 
	C101.998802,271.327667 102.000076,432.620422 102.000092,593.913147 
	C102.000107,768.869080 101.996689,943.825073 102.042191,1118.781006 
	C102.042717,1120.808960 102.676636,1122.836548 103.014893,1124.864380 
z"/>
</svg>